<svg xmlns="http://www.w3.org/2000/svg"  viewBox="0 0 50 50" width="50px" height="50px"><path d="M 24.984375 2.9863281 A 1.0001 1.0001 0 0 0 24.839844 3 L 23.367188 3 C 23.249261 3 23.105779 3.0007797 22.947266 3.0117188 C 16.420163 3.2012534 10.892604 7.9034529 9.6445312 14.265625 L 8.0566406 14.912109 C 8.0046406 14.933109 7.9522969 14.961234 7.9042969 14.990234 C 6.9242969 15.599234 6.2552656 16.588828 6.0722656 17.673828 C 6.0132656 17.966828 5.9909062 18.256484 6.0039062 18.521484 L 6.1640625 23.601562 C 6.2080625 24.699562 6.8455781 25.684578 7.7675781 26.142578 L 8.5488281 26.601562 C 8.4131037 29.678646 8.3841341 32.46654 8.4882812 34.570312 A 1.0001 1.0001 0 0 0 8.4882812 34.572266 C 8.5037982 34.867093 8.5638422 35.142698 8.6484375 35.396484 C 8.8652357 36.046879 9.3093713 36.587337 9.8769531 36.951172 A 1.0001 1.0001 0 0 0 9.8925781 36.960938 C 12.129809 38.341812 16.639335 40.361467 20.785156 41.386719 A 1.0001 1.0001 0 0 0 20.796875 41.390625 C 21.792811 41.637042 22.776062 41.824568 23.699219 41.912109 C 24.17751 41.977664 24.62876 42 25.046875 42 C 25.464396 42 25.916997 41.977449 26.394531 41.912109 C 27.317688 41.824569 28.300939 41.637042 29.296875 41.390625 C 33.445938 40.366293 37.96377 38.343122 40.203125 36.960938 A 1.0001 1.0001 0 0 0 40.207031 36.957031 C 41.039978 36.43644 41.559518 35.538619 41.605469 34.570312 C 41.710266 32.453398 41.682388 29.645203 41.544922 26.544922 L 42.175781 26.173828 C 43.155781 25.683828 43.792891 24.696844 43.837891 23.589844 L 43.996094 18.535156 C 44.008094 18.256156 43.985594 17.966125 43.933594 17.703125 C 43.745594 16.588125 43.075703 15.600234 42.095703 14.990234 C 42.047703 14.961234 41.997312 14.933109 41.945312 14.912109 L 40.455078 14.306641 C 39.222632 7.9239165 33.687426 3.2016552 27.146484 3.0117188 C 26.987971 3.0007796 26.844489 3 26.726562 3 L 25.154297 3 A 1.0001 1.0001 0 0 0 24.984375 2.9863281 z M 23.367188 5 L 24 5 L 24 15 A 1.0001 1.0001 0 1 0 26 15 L 26 5 L 26.726562 5 C 26.764196 5 26.77936 5.0017329 26.8125 5.0019531 L 27.933594 17.789062 C 26.758046 17.929501 25.747437 18 25.046875 18 C 24.328605 18 23.280512 17.923227 22.066406 17.775391 L 23.1875 5.0039062 C 23.243946 5.0025522 23.2885 5 23.367188 5 z M 11.318359 16.943359 C 16.05399 19.175725 22.189353 20 25.046875 20 C 27.904185 20 34.039894 19.175339 38.775391 16.943359 C 38.943726 18.448176 39.09551 19.952644 39.212891 21.439453 C 32.867792 23.254222 28.568832 29.945722 28.167969 39.566406 C 27.543061 39.702213 26.920889 39.830565 26.365234 39.896484 L 27.287109 28.25 C 27.447109 26.27 28.757187 24.329922 30.617188 23.669922 L 35.529297 21.759766 C 36.449297 21.439766 37.159688 20.689766 37.429688 19.759766 L 38 18.5 C 31.5 21.5 27.046875 21.5 25.046875 21.5 C 24.056875 21.5 22.326875 21.500859 20.046875 21.130859 C 19.126875 20.990859 18.58 20.780234 17.5 20.490234 C 17.17 20.410234 15.19 19.799063 14.5 19.539062 C 13.7 19.239062 12.86 18.9 12 18.5 L 12.570312 19.759766 C 12.840312 20.689766 13.550703 21.439766 14.470703 21.759766 L 14.5 21.769531 L 16.5 22.470703 L 17.5 22.820312 L 19.476562 23.669922 C 19.676562 23.739922 19.866875 23.820156 20.046875 23.910156 C 21.596875 24.690156 22.666641 26.48 22.806641 28.25 L 23.728516 39.896484 C 23.17286 39.830593 22.550689 39.702213 21.925781 39.566406 C 21.524893 29.945127 17.226596 23.253732 10.880859 21.439453 C 10.99824 19.952644 11.150024 18.448176 11.318359 16.943359 z M 35.751953 41.347656 C 33.839953 42.124656 31.763344 42.842031 29.777344 43.332031 C 28.599344 43.624031 27.514641 43.81725 26.556641 43.90625 C 26.170641 43.96425 25.629875 44 25.046875 44 C 24.459875 44 23.920438 43.963625 23.398438 43.890625 C 22.570438 43.817625 21.501406 43.626031 20.316406 43.332031 C 18.332406 42.842031 16.258562 42.126562 14.351562 41.351562 C 16.495562 44.564562 20.954781 48 25.050781 48 C 29.147781 48 33.607953 44.562656 35.751953 41.347656 z"/></svg>